<svg xmlns="http://www.w3.org/2000/svg" width="44" height="33" viewBox="0 0 44 33">
  <path id="envelope-solid" d="M43.166,74.9a.517.517,0,0,1,.834.4V92.875A4.126,4.126,0,0,1,39.875,97H4.125A4.126,4.126,0,0,1,0,92.875V75.309a.514.514,0,0,1,.834-.4c1.925,1.5,4.477,3.395,13.243,9.762,1.813,1.323,4.873,4.108,7.923,4.091,3.068.026,6.187-2.819,7.932-4.091C38.7,78.3,41.241,76.392,43.166,74.9ZM22,86c1.994.034,4.864-2.509,6.308-3.558,11.4-8.276,12.272-9,14.9-11.06A2.056,2.056,0,0,0,44,69.758V68.125A4.126,4.126,0,0,0,39.875,64H4.125A4.126,4.126,0,0,0,0,68.125v1.633a2.069,2.069,0,0,0,.791,1.624c2.63,2.054,3.5,2.784,14.9,11.06C17.136,83.491,20.006,86.034,22,86Z" transform="translate(0 -64)" fill="#d18538"/>
</svg>
